<svg width="26" height="18" viewBox="0 0 26 18" fill="none" xmlns="http://www.w3.org/2000/svg">
<path d="M24.9851 2.81647C24.6968 1.71529 23.8525 0.847059 22.7816 0.550588C20.8253 0 12.9999 0 12.9999 0C12.9999 0 5.17461 0 3.21828 0.529412C2.16803 0.825882 1.30313 1.71529 1.01482 2.81647C0.5 4.82824 0.5 9 0.5 9C0.5 9 0.5 13.1929 1.01482 15.1835C1.30313 16.2847 2.14744 17.1529 3.21828 17.4494C5.1952 18 12.9999 18 12.9999 18C12.9999 18 20.8253 18 22.7816 17.4706C23.8525 17.1741 24.6968 16.3059 24.9851 15.2047C25.4999 13.1929 25.4999 9.02118 25.4999 9.02118C25.4999 9.02118 25.5205 4.82824 24.9851 2.81647V2.81647Z" fill="#041A35"/>
<path d="M17.0158 8.99963L10.5084 5.14551V12.8537L17.0158 8.99963Z" fill="white"/>
</svg>
