<svg width="71" height="61" viewBox="0 0 71 61" fill="none" xmlns="http://www.w3.org/2000/svg">
<path d="M18.3561 44.1968L18.0233 44.4666L18.3907 44.6871C21.2714 46.4155 23.1059 49.6883 23.2037 53.1613V58.3141C23.2037 59.0526 22.6324 59.7 21.8178 59.7H4.6608C3.92227 59.7 3.27485 59.1287 3.27485 58.3141V53.1571C3.27485 49.6947 5.10184 46.5172 8.09029 44.6856L8.45447 44.4624L8.12093 44.1956C7.64275 43.813 7.16298 43.3333 6.78028 42.8551C4.00682 39.3153 4.58002 34.1467 8.12246 31.2744C11.6559 28.4095 16.8222 29.071 19.6989 32.6169C22.4717 36.1567 21.8983 41.3247 18.3561 44.1968ZM20.0327 56.829H20.3327V56.529V53.0579C20.3327 49.1236 17.124 45.9149 13.1897 45.9149C9.25543 45.9149 6.04675 49.1236 6.04675 53.0579V56.529V56.829H6.34675H20.0327ZM13.1897 32.229C10.148 32.229 7.73269 34.6443 7.73269 37.686C7.73269 40.7277 10.148 43.143 13.1897 43.143C16.2314 43.143 18.6467 40.7277 18.6467 37.686C18.6467 34.6443 16.2314 32.229 13.1897 32.229Z" fill="#E63756" stroke="white" stroke-width="0.6"/>
<path d="M57.5205 32.5288V4.95867C57.5205 3.27272 56.2313 1.98347 54.5453 1.98347H4.95867C3.27272 1.98347 1.98347 3.27272 1.98347 4.95867V39.6693C1.98347 40.5619 2.38016 41.3553 2.9752 41.8511L1.68595 43.3387C0.59504 42.4462 0 41.0578 0 39.6693V4.95867C0 2.18181 2.18181 0 4.95867 0H54.5453C57.3222 0 59.504 2.18181 59.504 4.95867V32.5288H57.5205ZM4.95867 3.96693V5.9504H6.94213V3.96693H4.95867ZM8.9256 3.96693V5.9504H10.9091V3.96693H8.9256ZM12.8925 3.96693V5.9504H14.876V3.96693H12.8925ZM4.95867 9.91733H54.5453V7.93387H4.95867V9.91733ZM54.5453 20.8264C54.5453 24.6942 51.471 27.7685 47.6032 27.7685C43.7354 27.7685 40.6611 24.6942 40.6611 20.8264C40.6611 16.9586 43.7354 13.8843 47.6032 13.8843C51.471 13.8843 54.5453 16.9586 54.5453 20.8264ZM52.5619 20.8264C52.5619 18.0495 50.38 15.8677 47.6032 15.8677C44.8263 15.8677 42.6445 18.0495 42.6445 20.8264C42.6445 23.6033 44.8263 25.7851 47.6032 25.7851C50.38 25.7851 52.5619 23.6033 52.5619 20.8264ZM49.8842 18.1487L46.6115 21.4214L45.3222 20.1322L43.9338 21.5206L45.9172 23.5041C46.3139 23.9008 46.909 23.9008 47.3057 23.5041L51.2726 19.5371L49.8842 18.1487ZM52.5619 29.752H42.6445V31.7355H52.5619V29.752ZM36.6941 20.8264C36.6941 24.6942 33.6198 27.7685 29.752 27.7685C25.8842 27.7685 22.8099 24.6942 22.8099 20.8264C22.8099 16.9586 25.8842 13.8843 29.752 13.8843C33.6198 13.8843 36.6941 16.9586 36.6941 20.8264ZM34.7107 20.8264C34.7107 18.0495 32.5288 15.8677 29.752 15.8677C26.9751 15.8677 24.7933 18.0495 24.7933 20.8264C24.7933 23.6033 26.9751 25.7851 29.752 25.7851C32.5288 25.7851 34.7107 23.6033 34.7107 20.8264ZM32.033 18.1487L28.7603 21.4214L27.471 20.1322L26.0826 21.5206L28.066 23.5041C28.4627 23.9008 29.0578 23.9008 29.4545 23.5041L33.4214 19.5371L32.033 18.1487ZM18.4462 20.8264C18.4462 24.6942 15.3719 27.7685 11.5041 27.7685C7.63635 27.7685 4.56197 24.6942 4.56197 20.8264C4.56197 16.9586 7.63635 13.8843 11.5041 13.8843C15.3719 13.8843 18.4462 16.9586 18.4462 20.8264ZM16.4628 20.8264C16.4628 18.0495 14.281 15.8677 11.5041 15.8677C8.72725 15.8677 6.54544 18.0495 6.54544 20.8264C6.54544 23.6033 8.72725 25.7851 11.5041 25.7851C14.281 25.7851 16.4628 23.6033 16.4628 20.8264ZM13.7851 18.1487L10.5124 21.4214L9.22312 20.1322L7.83469 21.5206L9.81816 23.5041C10.2149 23.9008 10.8099 23.9008 11.2066 23.5041L15.1735 19.5371L13.7851 18.1487ZM34.7107 29.752H24.7933V31.7355H34.7107V29.752Z" fill="#E63756"/>
<path d="M48.6943 52.1652C46.1158 52.1652 44.1323 50.0825 44.1323 47.6032C44.1323 45.0247 46.215 43.0412 48.6943 43.0412C51.2728 43.0412 53.2563 45.1239 53.2563 47.6032C53.3554 50.0825 51.2728 52.1652 48.6943 52.1652ZM48.6943 44.4297C47.0083 44.4297 45.6199 45.8181 45.6199 47.504C45.6199 49.19 47.0083 50.5784 48.6943 50.5784C50.3802 50.5784 51.7687 49.19 51.7687 47.504C51.7687 45.8181 50.3802 44.4297 48.6943 44.4297Z" fill="#E63756" stroke="#E63756" stroke-width="0.5" stroke-miterlimit="10"/>
<path d="M39.5702 50.5782C37.8843 50.5782 36.4958 49.1898 36.4958 47.5039C36.4958 45.8179 37.8843 44.4295 39.5702 44.4295C41.2562 44.4295 42.6446 45.8179 42.6446 47.5039C42.6446 49.1898 41.2562 50.5782 39.5702 50.5782ZM39.5702 46.0163C38.6777 46.0163 38.0826 46.7105 38.0826 47.5039C38.0826 48.2972 38.7768 48.9915 39.5702 48.9915C40.3636 48.9915 41.0578 48.2972 41.0578 47.5039C41.0578 46.7105 40.3636 46.0163 39.5702 46.0163Z" fill="#E63756" stroke="#E63756" stroke-width="0.5" stroke-miterlimit="10"/>
<path d="M57.9176 50.5782C56.2317 50.5782 54.8433 49.1898 54.8433 47.5039C54.8433 45.8179 56.2317 44.4295 57.9176 44.4295C59.6036 44.4295 60.992 45.8179 60.992 47.5039C60.992 49.1898 59.6036 50.5782 57.9176 50.5782ZM57.9176 46.0163C57.0251 46.0163 56.43 46.7105 56.43 47.5039C56.43 48.2972 57.1243 48.9915 57.9176 48.9915C58.711 48.9915 59.4052 48.2972 59.4052 47.5039C59.4052 46.7105 58.8102 46.0163 57.9176 46.0163Z" fill="#E63756" stroke="#E63756" stroke-width="0.5" stroke-miterlimit="10"/>
<path d="M36.4955 55.2394H61.7847V54.446C61.7847 52.6609 62.2806 50.5782 64.8591 50.5782H65.6525V43.6361H64.8591C62.9748 43.6361 61.7847 42.446 61.7847 40.5617V39.7683H37.1897V40.6609C37.1897 42.5452 35.3054 43.7353 32.6277 43.7353H31.8344V50.6774H32.6277C35.3054 50.6774 36.4955 51.8675 36.4955 54.5452V55.2394ZM33.4211 49.0906V45.3221C36.2972 45.1237 38.3798 43.6361 38.6773 41.4543H60.2971C60.4954 43.4378 61.983 44.9254 64.0657 45.2229V49.0906C61.8839 49.3882 60.4954 50.9749 60.1979 53.6526H37.9831C37.6856 50.8758 36.198 49.3882 33.4211 49.0906Z" fill="#E63756" stroke="#E63756" stroke-width="0.5" stroke-miterlimit="10"/>
<path d="M67.1405 35.2065H30.3472C28.6613 35.2065 27.2728 36.5949 27.2728 38.2808V56.7271C27.2728 58.413 28.6613 59.8015 30.3472 59.8015H62.3802C62.3802 59.8015 62.3802 59.8015 62.1818 58.3139H30.3472C29.4546 58.3139 28.8596 57.6196 28.8596 56.8263V38.2808C28.8596 37.3883 29.5538 36.7932 30.3472 36.7932H67.1405C68.0331 36.7932 68.6281 37.4875 68.6281 38.2808V56.7271C68.6281 57.6196 67.9339 58.2147 67.1405 58.2147H62.0827C62.281 59.7023 62.0827 58.2147 62.281 59.7023H67.0413C68.7273 59.7023 70.1157 58.3139 70.1157 56.6279V38.2808C70.2149 36.5949 68.8264 35.2065 67.1405 35.2065Z" fill="#E63756" stroke="#E63756" stroke-width="0.5" stroke-miterlimit="10"/>
</svg>
