<svg width="60" height="60" viewBox="0 0 60 60" fill="none" xmlns="http://www.w3.org/2000/svg">
<path d="M48 24C54.617 24 60 18.617 60 12C60 5.383 54.617 0 48 0C43.195 0 39.052 2.845 37.137 6.934L33.924 5.748C33.962 5.502 34 5.256 34 5C34 2.243 31.757 0 29 0C26.243 0 24 2.243 24 5C24 7.757 26.243 10 29 10C30.791 10 32.353 9.045 33.236 7.626L36.444 8.81C36.162 9.828 36 10.894 36 12C36 13.31 36.218 14.568 36.608 15.749L25.61 20.41C23.596 16.603 19.599 14 15 14C13.51 14 12.088 14.286 10.77 14.784L8.004 8.971C9.209 8.057 10 6.625 10 5C10 2.243 7.757 0 5 0C2.243 0 0 2.243 0 5C0 7.757 2.243 10 5 10C5.416 10 5.815 9.934 6.202 9.837L8.965 15.644C5.404 17.728 3 21.584 3 26C3 30.148 5.116 33.809 8.324 35.965L6.495 39.253C6.019 39.103 5.524 39 5 39C2.243 39 0 41.243 0 44C0 46.757 2.243 49 5 49C7.757 49 10 46.757 10 44C10 42.486 9.309 41.143 8.243 40.226L10.076 36.931C11.58 37.612 13.244 38 15 38C17.744 38 20.268 37.064 22.292 35.508L26.228 39.838C24.232 41.982 23 44.846 23 48C23 48.612 23.061 49.208 23.149 49.795L18.518 50.894C17.721 49.19 16.002 48 14 48C11.243 48 9 50.243 9 53C9 55.757 11.243 58 14 58C16.757 58 19 55.757 19 53C19 52.945 18.985 52.893 18.984 52.838L23.606 51.742C25.182 56.531 29.69 60 35 60C41.617 60 47 54.617 47 48C47 45.948 46.481 44.016 45.569 42.326L51.443 38.507C52.351 39.427 53.609 40 55 40C57.757 40 60 37.757 60 35C60 32.243 57.757 30 55 30C52.243 30 50 32.243 50 35C50 35.646 50.133 36.26 50.357 36.827L44.469 40.655C43.291 39.14 41.761 37.917 40 37.105L44.881 23.574C45.877 23.843 46.92 24 48 24ZM29 8C27.346 8 26 6.654 26 5C26 3.346 27.346 2 29 2C30.654 2 32 3.346 32 5C32 6.654 30.654 8 29 8ZM2 5C2 3.346 3.346 2 5 2C6.654 2 8 3.346 8 5C8 6.654 6.654 8 5 8C3.346 8 2 6.654 2 5ZM5 47C3.346 47 2 45.654 2 44C2 42.346 3.346 41 5 41C6.654 41 8 42.346 8 44C8 45.654 6.654 47 5 47ZM14 56C12.346 56 11 54.654 11 53C11 51.346 12.346 50 14 50C15.654 50 17 51.346 17 53C17 54.654 15.654 56 14 56ZM55 32C56.654 32 58 33.346 58 35C58 36.654 56.654 38 55 38C53.346 38 52 36.654 52 35C52 33.346 53.346 32 55 32ZM42.111 20.064C42.557 17.751 44.596 16 47 16H49C51.404 16 53.443 17.751 53.889 20.064C52.235 21.275 50.203 22 48 22C45.797 22 43.765 21.275 42.111 20.064ZM48 14C46.346 14 45 12.654 45 11C45 9.346 46.346 8 48 8C49.654 8 51 9.346 51 11C51 12.654 49.654 14 48 14ZM48 2C53.514 2 58 6.486 58 12C58 14.5 57.071 16.784 55.548 18.539C54.847 16.694 53.386 15.221 51.566 14.494C52.451 13.592 53 12.36 53 11C53 8.243 50.757 6 48 6C45.243 6 43 8.243 43 11C43 12.36 43.549 13.592 44.434 14.494C42.614 15.221 41.153 16.694 40.452 18.539C38.929 16.784 38 14.5 38 12C38 6.486 42.486 2 48 2ZM5 26C5 20.486 9.486 16 15 16C20.514 16 25 20.486 25 26C25 28.508 24.065 30.798 22.534 32.555C21.836 30.703 20.372 29.223 18.547 28.494C19.431 27.592 19.98 26.36 19.98 25C19.98 22.243 17.737 20 14.98 20C12.223 20 9.98 22.243 9.98 25C9.98 26.36 10.529 27.592 11.414 28.494C9.599 29.218 8.14 30.685 7.437 32.523C5.923 30.77 5 28.493 5 26ZM11.98 25C11.98 23.346 13.326 22 14.98 22C16.634 22 17.98 23.346 17.98 25C17.98 26.654 16.634 28 14.98 28C13.326 28 11.98 26.654 11.98 25ZM9.094 34.051C9.545 31.744 11.581 30 13.98 30H15.98C18.388 30 20.431 31.757 20.871 34.077C19.22 35.281 17.195 36 15 36C12.789 36 10.751 35.27 9.094 34.051ZM29.094 56.051C29.545 53.744 31.581 52 33.98 52H35.98C38.388 52 40.431 53.757 40.871 56.077C39.22 57.281 37.195 58 35 58C32.789 58 30.751 57.27 29.094 56.051ZM34.98 50C33.326 50 31.98 48.654 31.98 47C31.98 45.346 33.326 44 34.98 44C36.634 44 37.98 45.346 37.98 47C37.98 48.654 36.634 50 34.98 50ZM45 48C45 50.508 44.065 52.798 42.534 54.555C41.836 52.703 40.372 51.223 38.547 50.494C39.431 49.592 39.98 48.36 39.98 47C39.98 44.243 37.737 42 34.98 42C32.223 42 29.98 44.243 29.98 47C29.98 48.36 30.529 49.592 31.414 50.494C29.599 51.218 28.14 52.685 27.437 54.523C25.923 52.77 25 50.493 25 48C25 42.486 29.486 38 35 38C40.514 38 45 42.486 45 48ZM38.119 36.426C37.123 36.157 36.08 36 35 36C32.256 36 29.732 36.936 27.708 38.492L23.772 34.162C25.768 32.018 27 29.154 27 26C27 24.69 26.782 23.432 26.392 22.251L37.39 17.59C38.622 19.919 40.599 21.788 43.001 22.895L38.119 36.426Z" fill="#E63756"/>
</svg>
