<svg width="62" height="60" viewBox="0 0 62 60" fill="none" xmlns="http://www.w3.org/2000/svg">
<mask id="path-1-inside-1_5_164" fill="white">
<path d="M30.5395 43.6859C32.8432 43.6818 35.1115 43.1185 37.1495 42.0444C39.1874 40.9703 40.9342 39.4175 42.2397 37.5194C42.3573 37.5267 42.4753 37.5267 42.5929 37.5194C43.1944 37.5253 43.7829 37.3439 44.2767 37.0004C44.7705 36.6569 45.1453 36.1683 45.349 35.6023C45.5528 35.0363 45.5754 34.421 45.4139 33.8415C45.2523 33.2621 44.9145 32.7473 44.4473 32.3684C45.0511 29.4882 44.7476 26.4916 43.5786 23.791C42.4097 21.0903 40.4327 18.8181 37.9195 17.2871C35.4064 15.756 32.4805 15.0412 29.5445 15.241C26.6085 15.4408 23.8065 16.5454 21.524 18.4028C19.2414 20.2602 17.5904 22.7793 16.7981 25.6134C16.0058 28.4476 16.1111 31.4576 17.0995 34.2295C18.0879 37.0013 19.9109 39.3988 22.3176 41.0922C24.7244 42.7857 27.5967 43.6918 30.5395 43.6859ZM30.5395 17.4083C32.3141 17.4104 34.0663 17.8055 35.67 18.5653C37.2738 19.3251 38.6893 20.4307 39.815 21.8026C40.9407 23.1745 41.7485 24.7787 42.1805 26.4999C42.6124 28.2212 42.6578 30.0167 42.3133 31.7576C41.7932 31.8007 41.2945 31.984 40.8704 32.2881C40.4462 32.5922 40.1125 33.0057 39.9049 33.4845C39.6972 33.9633 39.6233 34.4895 39.6911 35.0069C39.7588 35.5244 39.9657 36.0138 40.2897 36.423C39.091 38.1046 37.4796 39.4495 35.6106 40.328C33.7416 41.2065 31.678 41.5891 29.6183 41.4391C27.5586 41.289 25.5722 40.6113 23.8503 39.4712C22.1283 38.3311 20.7289 36.7669 19.7866 34.9292C18.8443 33.0916 18.3909 31.0423 18.47 28.9787C18.5491 26.915 19.1581 24.9065 20.2383 23.1464C21.3185 21.3862 22.8336 19.9338 24.6378 18.9288C26.4419 17.9239 28.4744 17.4002 30.5395 17.4083ZM30.5395 54.6356C36.0305 54.6361 41.3712 52.8418 45.748 49.5261C50.1248 46.2103 53.2978 41.5547 54.7838 36.2686C56.2697 30.9825 55.987 25.3556 53.9788 20.245C51.9706 15.1344 48.347 10.8203 43.6599 7.95984C43.6658 7.85445 43.6658 7.74882 43.6599 7.64343C43.6606 7.06406 43.4881 6.4977 43.1646 6.01705C42.8412 5.53641 42.3814 5.1634 41.8444 4.94591C41.3074 4.72842 40.7177 4.67638 40.1509 4.79645C39.5841 4.91653 39.0661 5.20325 38.6634 5.61981C35.2012 4.43287 31.5219 4.01471 27.8816 4.39443C24.2413 4.77416 20.7275 5.94265 17.5847 7.81856C14.442 9.69448 11.7458 12.2328 9.68387 15.2567C7.62193 18.2807 6.24377 21.7177 5.64532 25.3285C5.04686 28.9392 5.24249 32.6371 6.21859 36.1646C7.19468 39.6921 8.92779 42.9644 11.2973 45.754C13.6668 48.5435 16.6157 50.7831 19.9389 52.317C23.262 53.8508 26.8795 54.642 30.5395 54.6356ZM30.5395 6.45133C33.0423 6.45082 35.5282 6.861 37.8981 7.6655C37.9135 8.4359 38.2304 9.16954 38.7808 9.70888C39.3311 10.2482 40.071 10.5502 40.8416 10.5501C41.5047 10.5472 42.1466 10.3159 42.6592 9.89516C47.3685 12.8131 50.8643 17.3351 52.5022 22.6274C54.1402 27.9198 53.8099 33.6259 51.5722 38.6939C49.3345 43.7619 45.3403 47.8502 40.3257 50.2053C35.3112 52.5604 29.6144 53.0235 24.2853 51.5092C18.9562 49.995 14.3541 46.6054 11.3273 41.9653C8.30043 37.3253 7.05288 31.7474 7.81455 26.26C8.57623 20.7726 11.2958 15.7454 15.472 12.1052C19.6482 8.46491 24.9995 6.45692 30.5395 6.45133ZM61.0778 29.447C61.0778 29.7397 60.9615 30.0205 60.7545 30.2275C60.5475 30.4345 60.2667 30.5508 59.974 30.5508C59.6812 30.5508 59.4005 30.4345 59.1935 30.2275C58.9865 30.0205 58.8702 29.7397 58.8702 29.447C58.8748 26.4481 58.4029 23.4675 57.4721 20.6167C57.3937 20.342 57.4248 20.0477 57.5589 19.7956C57.693 19.5434 57.9196 19.353 58.1911 19.2644C58.4626 19.1758 58.7578 19.1959 59.0148 19.3205C59.2718 19.445 59.4706 19.6643 59.5693 19.9323C60.5728 23.004 61.082 26.2156 61.0778 29.447ZM58.9806 40.5953C56.8673 45.9802 53.2694 50.6549 48.6049 54.0763C48.3688 54.25 48.0733 54.3228 47.7835 54.2786C47.4937 54.2344 47.2333 54.077 47.0596 53.8408C46.8859 53.6047 46.8132 53.3092 46.8573 53.0194C46.9015 52.7296 47.0589 52.4692 47.2951 52.2955C51.6223 49.1202 54.9599 44.7823 56.9202 39.7859C57.0326 39.5209 57.244 39.3103 57.5095 39.1989C57.7749 39.0876 58.0734 39.0844 58.3412 39.19C58.609 39.2956 58.8249 39.5016 58.943 39.7641C59.0611 40.0266 59.0719 40.3249 58.9732 40.5953H58.9806ZM34.9032 58.5945C34.9195 58.739 34.9072 58.8854 34.8668 59.0251C34.8264 59.1648 34.7587 59.2952 34.6678 59.4087C34.5768 59.5222 34.4644 59.6167 34.3368 59.6866C34.2092 59.7565 34.0691 59.8005 33.9245 59.816C32.793 59.9398 31.6556 60.0012 30.5174 60C25.1565 59.9953 19.8909 58.5819 15.2483 55.9012C14.761 56.257 14.1745 56.4511 13.5711 56.4561C12.9678 56.4611 12.3781 56.2768 11.885 55.9291C11.3919 55.5814 11.0202 55.0878 10.8223 54.5179C10.6244 53.9479 10.6101 53.3302 10.7816 52.7517C9.75752 51.8892 8.79144 50.96 7.88969 49.9702C7.72416 49.7497 7.64714 49.4753 7.67377 49.2009C7.7004 48.9264 7.82876 48.6719 8.03359 48.4874C8.23843 48.3029 8.50491 48.2017 8.7806 48.2037C9.05629 48.2058 9.32124 48.3109 9.52331 48.4985C10.3418 49.3902 11.2169 50.2284 12.143 51.0078C12.5753 50.7504 13.0675 50.6108 13.5705 50.603C13.9969 50.5977 14.4192 50.6872 14.8067 50.8651C15.1942 51.043 15.5374 51.3048 15.8113 51.6315C16.0853 51.9583 16.2832 52.3419 16.3907 52.7545C16.4982 53.1671 16.5127 53.5985 16.433 54.0174C20.7255 56.4846 25.5886 57.786 30.5395 57.7924C31.5967 57.7914 32.653 57.7325 33.7037 57.6158C33.9921 57.589 34.2794 57.6765 34.5038 57.8596C34.7282 58.0427 34.8716 58.3066 34.9032 58.5945ZM3.31263 21.5954C2.69419 23.7087 2.32376 25.8867 2.20884 28.0857C2.19559 28.3694 2.07347 28.6371 1.86789 28.8331C1.6623 29.0291 1.38908 29.1383 1.10505 29.1379H1.05354C0.908535 29.1313 0.766258 29.0962 0.634855 29.0345C0.503451 28.9729 0.385502 28.8859 0.287758 28.7786C0.190015 28.6712 0.114397 28.5457 0.0652352 28.4091C0.0160732 28.2726 -0.00566769 28.1276 0.00125669 27.9826C0.113172 25.613 0.500888 23.2645 1.15656 20.9846C1.1916 20.8398 1.25559 20.7036 1.34466 20.5842C1.43373 20.4649 1.54605 20.3647 1.67484 20.2899C1.80363 20.2151 1.94624 20.1671 2.09407 20.1488C2.24191 20.1306 2.3919 20.1424 2.53503 20.1837C2.67816 20.2249 2.81146 20.2947 2.92691 20.3888C3.04235 20.483 3.13754 20.5995 3.20676 20.7314C3.27597 20.8633 3.31778 21.0078 3.32965 21.1563C3.34152 21.3048 3.32322 21.4541 3.27584 21.5954H3.31263ZM7.35252 11.2344C7.13057 11.0448 6.9928 10.7749 6.96936 10.4839C6.94591 10.1929 7.0387 9.9045 7.22742 9.68176C11.1464 5.05448 16.3543 1.69869 22.1875 0.041974C22.3271 0.00235377 22.4732 -0.00937517 22.6174 0.00745734C22.7615 0.0242898 22.901 0.0693542 23.0277 0.140077C23.1545 0.2108 23.2661 0.305796 23.3561 0.419642C23.4462 0.533488 23.5129 0.663953 23.5525 0.803591C23.5921 0.943228 23.6039 1.0893 23.587 1.23347C23.5702 1.37764 23.5251 1.51708 23.4544 1.64384C23.3837 1.77059 23.2887 1.88218 23.1748 1.97222C23.061 2.06226 22.9305 2.12899 22.7909 2.16861C17.3771 3.70369 12.5431 6.8162 8.90518 11.1093C8.71553 11.3313 8.44567 11.469 8.15468 11.4925C7.86369 11.5159 7.57526 11.4231 7.35252 11.2344ZM46.5739 4.72205C46.7428 4.48304 46.9997 4.32087 47.2881 4.27119C47.5765 4.22152 47.8728 4.2884 48.1119 4.45714C51.6514 6.95973 54.6249 10.1789 56.8392 13.9056C56.9161 14.0304 56.9675 14.1692 56.9902 14.314C57.0129 14.4588 57.0065 14.6066 56.9715 14.7489C56.9364 14.8912 56.8734 15.0251 56.786 15.1428C56.6987 15.2605 56.5888 15.3596 56.4627 15.4344C56.3367 15.5091 56.197 15.5581 56.0518 15.5782C55.9067 15.5984 55.7589 15.5895 55.6172 15.552C55.4756 15.5145 55.3428 15.4492 55.2266 15.3598C55.1105 15.2704 55.0133 15.1588 54.9407 15.0315C52.8871 11.5727 50.1293 8.58424 46.8462 6.26C46.7267 6.17752 46.6247 6.07226 46.5459 5.95026C46.4671 5.82826 46.4132 5.69192 46.3873 5.54906C46.3613 5.40619 46.3638 5.2596 46.3945 5.11769C46.4253 4.97577 46.4838 4.84133 46.5666 4.72205H46.5739ZM30.5395 49.0136C33.984 49.0104 37.3666 48.098 40.3454 46.3686C43.3243 44.6392 45.7938 42.1541 47.5044 39.1644C49.2151 36.1747 50.1062 32.7865 50.0877 29.3421C50.0692 25.8976 49.1418 22.5191 47.3992 19.548C45.6566 16.5769 43.1606 14.1184 40.1633 12.421C37.1661 10.7237 33.7739 9.84762 30.3296 9.88139C26.8853 9.91516 23.511 10.8576 20.5476 12.6133C17.5842 14.3691 15.1368 16.8761 13.4528 19.8808H13.2909C12.6913 19.8796 12.106 20.0643 11.6158 20.4095C11.1255 20.7547 10.7543 21.2435 10.5534 21.8084C10.3524 22.3734 10.3315 22.9867 10.4937 23.564C10.6558 24.1413 10.9929 24.6541 11.4586 25.0318C10.7908 27.9025 10.7807 30.887 11.429 33.7621C12.0772 36.6373 13.3671 39.3286 15.2021 41.635C17.0372 43.9414 19.3699 45.803 22.0258 47.0807C24.6818 48.3585 27.5922 49.0192 30.5395 49.0136ZM30.5395 12.0807C34.1401 12.0747 37.6536 13.1875 40.5942 15.2653C43.5348 17.3431 45.7572 20.2832 46.9541 23.6791C48.151 27.0749 48.2633 30.7587 47.2754 34.2211C46.2875 37.6836 44.2482 40.7535 41.4396 43.0065C38.631 45.2595 35.1918 46.5843 31.5975 46.7975C28.0032 47.0108 24.4315 46.1021 21.3761 44.197C18.3208 42.292 15.9328 39.4847 14.5424 36.1634C13.152 32.8421 12.8278 29.1709 13.6147 25.6573C14.15 25.609 14.6612 25.4121 15.0906 25.0887C15.52 24.7654 15.8505 24.3285 16.0448 23.8273C16.2392 23.3262 16.2896 22.7807 16.1905 22.2524C16.0914 21.7241 15.8466 21.234 15.4838 20.8374C17 18.1814 19.1908 15.9728 21.8345 14.4351C24.4782 12.8975 27.4811 12.0853 30.5395 12.0807ZM30.5395 34.8924C31.6238 34.8924 32.6837 34.5709 33.5853 33.9685C34.4868 33.3661 35.1895 32.5099 35.6044 31.5081C36.0193 30.5064 36.1279 29.4041 35.9164 28.3407C35.7048 27.2773 35.1827 26.3004 34.416 25.5337C33.6493 24.767 32.6725 24.2449 31.609 24.0334C30.5456 23.8219 29.4433 23.9304 28.4416 24.3453C27.4398 24.7603 26.5836 25.4629 25.9813 26.3645C25.3789 27.266 25.0573 28.3259 25.0573 29.4102C25.0535 30.133 25.1924 30.8494 25.466 31.5183C25.7397 32.1872 26.1428 32.7956 26.6522 33.3083C27.1615 33.8211 27.7671 34.2282 28.4342 34.5064C29.1013 34.7845 29.8168 34.9282 30.5395 34.9292V34.8924ZM30.5395 26.1356C31.1872 26.1356 31.8203 26.3277 32.3588 26.6875C32.8973 27.0473 33.317 27.5587 33.5648 28.1571C33.8127 28.7554 33.8775 29.4138 33.7512 30.0491C33.6248 30.6843 33.313 31.2677 32.855 31.7257C32.397 32.1837 31.8136 32.4955 31.1784 32.6219C30.5432 32.7482 29.8847 32.6834 29.2864 32.4355C28.688 32.1877 28.1766 31.768 27.8168 31.2295C27.457 30.691 27.2649 30.0579 27.2649 29.4102C27.2746 28.5475 27.6236 27.7232 28.2365 27.1159C28.8493 26.5085 29.6767 26.1669 30.5395 26.1651V26.1356Z"/>
</mask>
<path d="M30.5395 43.6859C32.8432 43.6818 35.1115 43.1185 37.1495 42.0444C39.1874 40.9703 40.9342 39.4175 42.2397 37.5194C42.3573 37.5267 42.4753 37.5267 42.5929 37.5194C43.1944 37.5253 43.7829 37.3439 44.2767 37.0004C44.7705 36.6569 45.1453 36.1683 45.349 35.6023C45.5528 35.0363 45.5754 34.421 45.4139 33.8415C45.2523 33.2621 44.9145 32.7473 44.4473 32.3684C45.0511 29.4882 44.7476 26.4916 43.5786 23.791C42.4097 21.0903 40.4327 18.8181 37.9195 17.2871C35.4064 15.756 32.4805 15.0412 29.5445 15.241C26.6085 15.4408 23.8065 16.5454 21.524 18.4028C19.2414 20.2602 17.5904 22.7793 16.7981 25.6134C16.0058 28.4476 16.1111 31.4576 17.0995 34.2295C18.0879 37.0013 19.9109 39.3988 22.3176 41.0922C24.7244 42.7857 27.5967 43.6918 30.5395 43.6859ZM30.5395 17.4083C32.3141 17.4104 34.0663 17.8055 35.67 18.5653C37.2738 19.3251 38.6893 20.4307 39.815 21.8026C40.9407 23.1745 41.7485 24.7787 42.1805 26.4999C42.6124 28.2212 42.6578 30.0167 42.3133 31.7576C41.7932 31.8007 41.2945 31.984 40.8704 32.2881C40.4462 32.5922 40.1125 33.0057 39.9049 33.4845C39.6972 33.9633 39.6233 34.4895 39.6911 35.0069C39.7588 35.5244 39.9657 36.0138 40.2897 36.423C39.091 38.1046 37.4796 39.4495 35.6106 40.328C33.7416 41.2065 31.678 41.5891 29.6183 41.4391C27.5586 41.289 25.5722 40.6113 23.8503 39.4712C22.1283 38.3311 20.7289 36.7669 19.7866 34.9292C18.8443 33.0916 18.3909 31.0423 18.47 28.9787C18.5491 26.915 19.1581 24.9065 20.2383 23.1464C21.3185 21.3862 22.8336 19.9338 24.6378 18.9288C26.4419 17.9239 28.4744 17.4002 30.5395 17.4083ZM30.5395 54.6356C36.0305 54.6361 41.3712 52.8418 45.748 49.5261C50.1248 46.2103 53.2978 41.5547 54.7838 36.2686C56.2697 30.9825 55.987 25.3556 53.9788 20.245C51.9706 15.1344 48.347 10.8203 43.6599 7.95984C43.6658 7.85445 43.6658 7.74882 43.6599 7.64343C43.6606 7.06406 43.4881 6.4977 43.1646 6.01705C42.8412 5.53641 42.3814 5.1634 41.8444 4.94591C41.3074 4.72842 40.7177 4.67638 40.1509 4.79645C39.5841 4.91653 39.0661 5.20325 38.6634 5.61981C35.2012 4.43287 31.5219 4.01471 27.8816 4.39443C24.2413 4.77416 20.7275 5.94265 17.5847 7.81856C14.442 9.69448 11.7458 12.2328 9.68387 15.2567C7.62193 18.2807 6.24377 21.7177 5.64532 25.3285C5.04686 28.9392 5.24249 32.6371 6.21859 36.1646C7.19468 39.6921 8.92779 42.9644 11.2973 45.754C13.6668 48.5435 16.6157 50.7831 19.9389 52.317C23.262 53.8508 26.8795 54.642 30.5395 54.6356ZM30.5395 6.45133C33.0423 6.45082 35.5282 6.861 37.8981 7.6655C37.9135 8.4359 38.2304 9.16954 38.7808 9.70888C39.3311 10.2482 40.071 10.5502 40.8416 10.5501C41.5047 10.5472 42.1466 10.3159 42.6592 9.89516C47.3685 12.8131 50.8643 17.3351 52.5022 22.6274C54.1402 27.9198 53.8099 33.6259 51.5722 38.6939C49.3345 43.7619 45.3403 47.8502 40.3257 50.2053C35.3112 52.5604 29.6144 53.0235 24.2853 51.5092C18.9562 49.995 14.3541 46.6054 11.3273 41.9653C8.30043 37.3253 7.05288 31.7474 7.81455 26.26C8.57623 20.7726 11.2958 15.7454 15.472 12.1052C19.6482 8.46491 24.9995 6.45692 30.5395 6.45133ZM61.0778 29.447C61.0778 29.7397 60.9615 30.0205 60.7545 30.2275C60.5475 30.4345 60.2667 30.5508 59.974 30.5508C59.6812 30.5508 59.4005 30.4345 59.1935 30.2275C58.9865 30.0205 58.8702 29.7397 58.8702 29.447C58.8748 26.4481 58.4029 23.4675 57.4721 20.6167C57.3937 20.342 57.4248 20.0477 57.5589 19.7956C57.693 19.5434 57.9196 19.353 58.1911 19.2644C58.4626 19.1758 58.7578 19.1959 59.0148 19.3205C59.2718 19.445 59.4706 19.6643 59.5693 19.9323C60.5728 23.004 61.082 26.2156 61.0778 29.447ZM58.9806 40.5953C56.8673 45.9802 53.2694 50.6549 48.6049 54.0763C48.3688 54.25 48.0733 54.3228 47.7835 54.2786C47.4937 54.2344 47.2333 54.077 47.0596 53.8408C46.8859 53.6047 46.8132 53.3092 46.8573 53.0194C46.9015 52.7296 47.0589 52.4692 47.2951 52.2955C51.6223 49.1202 54.9599 44.7823 56.9202 39.7859C57.0326 39.5209 57.244 39.3103 57.5095 39.1989C57.7749 39.0876 58.0734 39.0844 58.3412 39.19C58.609 39.2956 58.8249 39.5016 58.943 39.7641C59.0611 40.0266 59.0719 40.3249 58.9732 40.5953H58.9806ZM34.9032 58.5945C34.9195 58.739 34.9072 58.8854 34.8668 59.0251C34.8264 59.1648 34.7587 59.2952 34.6678 59.4087C34.5768 59.5222 34.4644 59.6167 34.3368 59.6866C34.2092 59.7565 34.0691 59.8005 33.9245 59.816C32.793 59.9398 31.6556 60.0012 30.5174 60C25.1565 59.9953 19.8909 58.5819 15.2483 55.9012C14.761 56.257 14.1745 56.4511 13.5711 56.4561C12.9678 56.4611 12.3781 56.2768 11.885 55.9291C11.3919 55.5814 11.0202 55.0878 10.8223 54.5179C10.6244 53.9479 10.6101 53.3302 10.7816 52.7517C9.75752 51.8892 8.79144 50.96 7.88969 49.9702C7.72416 49.7497 7.64714 49.4753 7.67377 49.2009C7.7004 48.9264 7.82876 48.6719 8.03359 48.4874C8.23843 48.3029 8.50491 48.2017 8.7806 48.2037C9.05629 48.2058 9.32124 48.3109 9.52331 48.4985C10.3418 49.3902 11.2169 50.2284 12.143 51.0078C12.5753 50.7504 13.0675 50.6108 13.5705 50.603C13.9969 50.5977 14.4192 50.6872 14.8067 50.8651C15.1942 51.043 15.5374 51.3048 15.8113 51.6315C16.0853 51.9583 16.2832 52.3419 16.3907 52.7545C16.4982 53.1671 16.5127 53.5985 16.433 54.0174C20.7255 56.4846 25.5886 57.786 30.5395 57.7924C31.5967 57.7914 32.653 57.7325 33.7037 57.6158C33.9921 57.589 34.2794 57.6765 34.5038 57.8596C34.7282 58.0427 34.8716 58.3066 34.9032 58.5945ZM3.31263 21.5954C2.69419 23.7087 2.32376 25.8867 2.20884 28.0857C2.19559 28.3694 2.07347 28.6371 1.86789 28.8331C1.6623 29.0291 1.38908 29.1383 1.10505 29.1379H1.05354C0.908535 29.1313 0.766258 29.0962 0.634855 29.0345C0.503451 28.9729 0.385502 28.8859 0.287758 28.7786C0.190015 28.6712 0.114397 28.5457 0.0652352 28.4091C0.0160732 28.2726 -0.00566769 28.1276 0.00125669 27.9826C0.113172 25.613 0.500888 23.2645 1.15656 20.9846C1.1916 20.8398 1.25559 20.7036 1.34466 20.5842C1.43373 20.4649 1.54605 20.3647 1.67484 20.2899C1.80363 20.2151 1.94624 20.1671 2.09407 20.1488C2.24191 20.1306 2.3919 20.1424 2.53503 20.1837C2.67816 20.2249 2.81146 20.2947 2.92691 20.3888C3.04235 20.483 3.13754 20.5995 3.20676 20.7314C3.27597 20.8633 3.31778 21.0078 3.32965 21.1563C3.34152 21.3048 3.32322 21.4541 3.27584 21.5954H3.31263ZM7.35252 11.2344C7.13057 11.0448 6.9928 10.7749 6.96936 10.4839C6.94591 10.1929 7.0387 9.9045 7.22742 9.68176C11.1464 5.05448 16.3543 1.69869 22.1875 0.041974C22.3271 0.00235377 22.4732 -0.00937517 22.6174 0.00745734C22.7615 0.0242898 22.901 0.0693542 23.0277 0.140077C23.1545 0.2108 23.2661 0.305796 23.3561 0.419642C23.4462 0.533488 23.5129 0.663953 23.5525 0.803591C23.5921 0.943228 23.6039 1.0893 23.587 1.23347C23.5702 1.37764 23.5251 1.51708 23.4544 1.64384C23.3837 1.77059 23.2887 1.88218 23.1748 1.97222C23.061 2.06226 22.9305 2.12899 22.7909 2.16861C17.3771 3.70369 12.5431 6.8162 8.90518 11.1093C8.71553 11.3313 8.44567 11.469 8.15468 11.4925C7.86369 11.5159 7.57526 11.4231 7.35252 11.2344ZM46.5739 4.72205C46.7428 4.48304 46.9997 4.32087 47.2881 4.27119C47.5765 4.22152 47.8728 4.2884 48.1119 4.45714C51.6514 6.95973 54.6249 10.1789 56.8392 13.9056C56.9161 14.0304 56.9675 14.1692 56.9902 14.314C57.0129 14.4588 57.0065 14.6066 56.9715 14.7489C56.9364 14.8912 56.8734 15.0251 56.786 15.1428C56.6987 15.2605 56.5888 15.3596 56.4627 15.4344C56.3367 15.5091 56.197 15.5581 56.0518 15.5782C55.9067 15.5984 55.7589 15.5895 55.6172 15.552C55.4756 15.5145 55.3428 15.4492 55.2266 15.3598C55.1105 15.2704 55.0133 15.1588 54.9407 15.0315C52.8871 11.5727 50.1293 8.58424 46.8462 6.26C46.7267 6.17752 46.6247 6.07226 46.5459 5.95026C46.4671 5.82826 46.4132 5.69192 46.3873 5.54906C46.3613 5.40619 46.3638 5.2596 46.3945 5.11769C46.4253 4.97577 46.4838 4.84133 46.5666 4.72205H46.5739ZM30.5395 49.0136C33.984 49.0104 37.3666 48.098 40.3454 46.3686C43.3243 44.6392 45.7938 42.1541 47.5044 39.1644C49.2151 36.1747 50.1062 32.7865 50.0877 29.3421C50.0692 25.8976 49.1418 22.5191 47.3992 19.548C45.6566 16.5769 43.1606 14.1184 40.1633 12.421C37.1661 10.7237 33.7739 9.84762 30.3296 9.88139C26.8853 9.91516 23.511 10.8576 20.5476 12.6133C17.5842 14.3691 15.1368 16.8761 13.4528 19.8808H13.2909C12.6913 19.8796 12.106 20.0643 11.6158 20.4095C11.1255 20.7547 10.7543 21.2435 10.5534 21.8084C10.3524 22.3734 10.3315 22.9867 10.4937 23.564C10.6558 24.1413 10.9929 24.6541 11.4586 25.0318C10.7908 27.9025 10.7807 30.887 11.429 33.7621C12.0772 36.6373 13.3671 39.3286 15.2021 41.635C17.0372 43.9414 19.3699 45.803 22.0258 47.0807C24.6818 48.3585 27.5922 49.0192 30.5395 49.0136ZM30.5395 12.0807C34.1401 12.0747 37.6536 13.1875 40.5942 15.2653C43.5348 17.3431 45.7572 20.2832 46.9541 23.6791C48.151 27.0749 48.2633 30.7587 47.2754 34.2211C46.2875 37.6836 44.2482 40.7535 41.4396 43.0065C38.631 45.2595 35.1918 46.5843 31.5975 46.7975C28.0032 47.0108 24.4315 46.1021 21.3761 44.197C18.3208 42.292 15.9328 39.4847 14.5424 36.1634C13.152 32.8421 12.8278 29.1709 13.6147 25.6573C14.15 25.609 14.6612 25.4121 15.0906 25.0887C15.52 24.7654 15.8505 24.3285 16.0448 23.8273C16.2392 23.3262 16.2896 22.7807 16.1905 22.2524C16.0914 21.7241 15.8466 21.234 15.4838 20.8374C17 18.1814 19.1908 15.9728 21.8345 14.4351C24.4782 12.8975 27.4811 12.0853 30.5395 12.0807ZM30.5395 34.8924C31.6238 34.8924 32.6837 34.5709 33.5853 33.9685C34.4868 33.3661 35.1895 32.5099 35.6044 31.5081C36.0193 30.5064 36.1279 29.4041 35.9164 28.3407C35.7048 27.2773 35.1827 26.3004 34.416 25.5337C33.6493 24.767 32.6725 24.2449 31.609 24.0334C30.5456 23.8219 29.4433 23.9304 28.4416 24.3453C27.4398 24.7603 26.5836 25.4629 25.9813 26.3645C25.3789 27.266 25.0573 28.3259 25.0573 29.4102C25.0535 30.133 25.1924 30.8494 25.466 31.5183C25.7397 32.1872 26.1428 32.7956 26.6522 33.3083C27.1615 33.8211 27.7671 34.2282 28.4342 34.5064C29.1013 34.7845 29.8168 34.9282 30.5395 34.9292V34.8924ZM30.5395 26.1356C31.1872 26.1356 31.8203 26.3277 32.3588 26.6875C32.8973 27.0473 33.317 27.5587 33.5648 28.1571C33.8127 28.7554 33.8775 29.4138 33.7512 30.0491C33.6248 30.6843 33.313 31.2677 32.855 31.7257C32.397 32.1837 31.8136 32.4955 31.1784 32.6219C30.5432 32.7482 29.8847 32.6834 29.2864 32.4355C28.688 32.1877 28.1766 31.768 27.8168 31.2295C27.457 30.691 27.2649 30.0579 27.2649 29.4102C27.2746 28.5475 27.6236 27.7232 28.2365 27.1159C28.8493 26.5085 29.6767 26.1669 30.5395 26.1651V26.1356Z" fill="#E63756" stroke="#E63756" stroke-width="0.2" mask="url(#path-1-inside-1_5_164)"/>
</svg>
